<svg xmlns="http://www.w3.org/2000/svg" version="1.1" xmlns:xlink="http://www.w3.org/1999/xlink" width="1000" height="1000"><g clip-path="url(#SvgjsClipPath1011)"><rect width="1000" height="1000" fill="#ffffff"></rect><g transform="matrix(7,0,0,7,150,150)"><svg xmlns="http://www.w3.org/2000/svg" version="1.1" xmlns:xlink="http://www.w3.org/1999/xlink" width="100" height="100"><svg xmlns="http://www.w3.org/2000/svg" version="1.1" viewBox="0 0 100 100">
  <path class="st0" d="M2.3,38.2L50,0l48,38.2H2.3ZM0,93.9h7.4v-5.8h1.1v-2.8h3.1v-33.3h-6.4v-8h89.6v8h-6.4v33.3h3.1v2.8h1.1v5.8h7.4v6.1H0v-6.1h0ZM26.5,88.1h3.6v-2.8h3.1v-33.3h-9.9v33.3h3.1v2.8h0ZM48.2,88.1h3.6v-2.8h3.1v-33.3h-9.9v33.3h3.1v2.8h0ZM69.9,88.1h3.6v-2.8h3.1v-33.3h-9.9v33.3h3.1v2.8h0ZM33.9,28.6l16.1-14,16.2,14h-32.4Z" fill="#333"></path>
</svg></svg></g></g><defs><clipPath id="SvgjsClipPath1011"><rect width="1000" height="1000" x="0" y="0" rx="350" ry="350"></rect></clipPath></defs></svg>